<svg xmlns="http://www.w3.org/2000/svg" width="1200" height="630" viewBox="0 0 1200 630">
  <rect width="1200" height="630" fill="#f8fbf7"/>
  <rect x="42" y="42" width="1116" height="546" rx="34" fill="#e8f3ea" stroke="#bcd8c2" stroke-width="2"/>
  <g fill="none" stroke="#8dbd99" stroke-width="2" opacity=".7">
    <path d="M765 144h142v90h142v124H907v104H765"/>
    <path d="M765 304h284"/>
  </g>
  <g fill="#f8fbf7" stroke="#397052" stroke-width="2">
    <circle cx="765" cy="144" r="13"/><circle cx="907" cy="234" r="13"/>
    <circle cx="1049" cy="358" r="13"/><circle cx="907" cy="462" r="13"/>
    <circle cx="765" cy="304" r="13"/>
  </g>
  <rect x="88" y="84" width="54" height="54" rx="15" fill="#17372a"/>
  <path d="M100 98h9l6 23 7-23h9l-11 31h-9l-11-31Z" fill="#e8f3ea"/>
  <text x="160" y="121" fill="#17372a" font-family="sans-serif" font-size="28" font-weight="700">VELITHIC AI</text>
  <text x="88" y="274" fill="#17372a" font-family="Georgia, serif" font-size="70">From AI experiments</text>
  <text x="88" y="352" fill="#17372a" font-family="Georgia, serif" font-size="70">to production-grade systems.</text>
  <text x="91" y="430" fill="#52665b" font-family="sans-serif" font-size="26">Agents · RAG · Training · Production engineering</text>
</svg>
